<?xml version="1.0" standalone="no"?><!DOCTYPE svg PUBLIC "-//W3C//DTD SVG 1.1//EN" "http://www.w3.org/Graphics/SVG/1.1/DTD/svg11.dtd"><svg t="1572249513911" class="icon" viewBox="0 0 1030 1024" version="1.1" xmlns="http://www.w3.org/2000/svg" p-id="3256" xmlns:xlink="http://www.w3.org/1999/xlink" width="201.171875" height="200"><defs><style type="text/css"></style></defs><path d="M865.634675 149.003096C773.696594 55.479876 646.885449 0 505.80805 0c-137.907121 0-263.133127 55.479876-355.071208 145.832817l-3.170279 3.170279C55.628483 239.356037 0.148607 367.752322 0.148607 507.244582c0 141.077399 55.479876 267.888545 147.417956 359.826625 91.93808 91.93808 218.749226 149.003096 358.241487 149.003096 137.907121 0 264.718266-55.479876 356.656346-145.832817l3.170279-3.170279c91.93808-93.52322 149.003096-220.334365 149.003096-359.826625s-57.065015-267.888545-149.003096-358.241486z m-74.501548 397.869969c-11.095975 11.095975-25.362229 17.436533-39.628483 17.436533H264.866873c-15.851393 0-30.117647-6.340557-41.213622-17.436533-9.510836-11.095975-17.436533-30.117647-17.436533-44.383901 0-15.851393 4.755418-33.287926 15.851393-42.798762 11.095975-9.510836 25.362229-17.436533 41.213623-17.436532h486.637771c15.851393 0 30.117647 6.340557 39.628483 17.436532 11.095975 11.095975 17.436533 28.532508 17.436532 42.798762s-3.170279 30.117647-15.851393 44.383901z" p-id="3257" fill="#4A4A4A"></path></svg>